<?xml version="1.0" encoding="iso-8859-1"?>
<!-- Generator: Adobe Illustrator 19.0.0, SVG Export Plug-In . SVG Version: 6.00 Build 0)  -->
<svg version="1.1" id="Capa_1" xmlns="http://www.w3.org/2000/svg" xmlns:xlink="http://www.w3.org/1999/xlink" x="0px" y="0px"
	 viewBox="0 0 496 496" style="enable-background:new 0 0 496 496;" xml:space="preserve">
<path style="fill:#ECECEC;" d="M432,216h32c13.256,0,24,10.744,24,24v224c0,13.256-10.744,24-24,24H96c-13.256,0-24-10.744-24-24
	V280v-64H432z"/>
<rect x="72" y="312" style="fill:#798699;" width="416" height="32"/>
<path style="fill:#B6C1CE;" d="M432,216H72v64v16h328c22.056,0,40-17.944,40-40v-40H432z"/>
<path style="fill:#48C397;" d="M400,280H32c-13.256,0-24-10.744-24-24V32C8,18.744,18.744,8,32,8h368c13.256,0,24,10.744,24,24v224
	C424,269.256,413.256,280,400,280z"/>
<circle style="fill:#FB5968;" cx="424" cy="424" r="32"/>
<circle style="fill:#FCD770;" cx="376" cy="424" r="32"/>
<rect x="40" y="48" style="fill:#FFEAA7;" width="96" height="96"/>
<path d="M464,208h-32V32c0-17.648-14.352-32-32-32H32C14.352,0,0,14.352,0,32v224c0,17.648,14.352,32,32,32h32v176
	c0,17.648,14.352,32,32,32h368c17.648,0,32-14.352,32-32V240C496,222.352,481.648,208,464,208z M16,256V32c0-8.824,7.176-16,16-16
	h368c8.824,0,16,7.176,16,16v224c0,8.824-7.176,16-16,16H32C23.176,272,16,264.824,16,256z M400,288c17.648,0,32-14.352,32-32v-32
	h32c8.824,0,16,7.176,16,16v64H80v-16H400z M80,320h400v16H80V320z M464,480H96c-8.824,0-16-7.176-16-16V352h400v112
	C480,472.824,472.824,480,464,480z"/>
<path d="M424,384c-8.688,0-17.104,2.904-24,8.144c-6.896-5.24-15.312-8.144-24-8.144c-22.056,0-40,17.944-40,40s17.944,40,40,40
	c8.688,0,17.104-2.904,24-8.144c6.896,5.24,15.312,8.144,24,8.144c22.056,0,40-17.944,40-40S446.056,384,424,384z M424,448
	c-6.912,0-13.296-2.952-17.976-8.304l-6.024-6.88l-6.024,6.888C389.296,445.048,382.912,448,376,448c-13.232,0-24-10.768-24-24
	s10.768-24,24-24c6.912,0,13.296,2.952,17.976,8.304l6.024,6.88l6.024-6.888C410.704,402.952,417.088,400,424,400
	c13.232,0,24,10.768,24,24S437.232,448,424,448z"/>
<path d="M144,40H32v112h112V40z M96,136v-16h16v-16H64v16h16v16H48v-32h16V88H48V56h32v16H64v16h48V72H96V56h32v32h-16v16h16v32H96z
	"/>
<rect x="272" y="200" width="16" height="56"/>
<rect x="304" y="200" width="16" height="56"/>
<rect x="336" y="200" width="16" height="56"/>
<rect x="368" y="200" width="16" height="56"/>
<rect x="216" y="96" width="184" height="16"/>
<rect x="296" y="128" width="104" height="16"/>
<rect x="216" y="40" width="152" height="16"/>
<rect x="32" y="192" width="128" height="16"/>
<rect x="384" y="40" width="16" height="16"/>
<rect x="184" y="40" width="16" height="16"/>
<rect x="176" y="192" width="16" height="16"/>
<g>
</g>
<g>
</g>
<g>
</g>
<g>
</g>
<g>
</g>
<g>
</g>
<g>
</g>
<g>
</g>
<g>
</g>
<g>
</g>
<g>
</g>
<g>
</g>
<g>
</g>
<g>
</g>
<g>
</g>
</svg>
