<svg height="512pt" viewBox="0 0 512 512" width="512pt" xmlns="http://www.w3.org/2000/svg"><path d="m452 45v15l-25.199219 30h-399.5l-27.300781-30v-15c0-24.902344 21.097656-45 46-45h361c24.902344 0 45 20.097656 45 45zm0 0" fill="#fdbf00"/><path d="m452 45v15l-25.199219 30h-200.800781v-90h181c24.902344 0 45 20.097656 45 45zm0 0" fill="#ff9f00"/><path d="m452 60v60l-28.199219 31h-393.800781l-30-31v-60zm0 0" fill="#53433f"/><path d="m452 60v60l-28.199219 31h-197.800781v-91zm0 0" fill="#3e322e"/><path d="m452 120v166c0 24.898438-20.097656 45-45 45h-361c-24.902344 0-46-20.101562-46-45v-166zm0 0" fill="#fdbf00"/><path d="m226 120h226v166c0 24.898438-20.097656 45-45 45h-181zm0 0" fill="#ff9f00"/><path d="m512 226v226l-27.300781 30h-386.199219l-37.5-30v-226c0-24.902344 20.097656-45 45-45h361c24.902344 0 45 20.097656 45 45zm0 0" fill="#68544f"/><path d="m512 226v226l-27.300781 30h-198.699219v-301h181c24.902344 0 45 20.097656 45 45zm0 0" fill="#53433f"/><path d="m226 361h-90c-8.289062 0-15-6.710938-15-15v-60c0-8.289062 6.710938-15 15-15h90c8.289062 0 15 6.710938 15 15v60c0 8.289062-6.710938 15-15 15zm0 0" fill="#fdbf00"/><path d="m331 286c0 8.398438-6.597656 15-15 15h-30c-8.402344 0-15-6.601562-15-15 0-8.402344 6.597656-15 15-15h30c8.402344 0 15 6.597656 15 15zm0 0" fill="#d2c5c2"/><path d="m437 301h-61c-8.289062 0-15-6.710938-15-15s6.710938-15 15-15h61c8.289062 0 15 6.710938 15 15s-6.710938 15-15 15zm0 0" fill="#c4b3af"/><path d="m361 346c0 8.398438-6.597656 15-15 15h-60c-8.402344 0-15-6.601562-15-15 0-8.402344 6.597656-15 15-15h60c8.402344 0 15 6.597656 15 15zm0 0" fill="#d2c5c2"/><path d="m437 361h-30c-8.289062 0-15-6.710938-15-15s6.710938-15 15-15h30c8.289062 0 15 6.710938 15 15s-6.710938 15-15 15zm0 0" fill="#c4b3af"/><path d="m512 452v15c0 24.898438-20.097656 45-45 45h-361c-24.902344 0-45-20.101562-45-45v-15zm0 0" fill="#53433f"/><path d="m512 452v15c0 24.898438-20.097656 45-45 45h-181v-60zm0 0" fill="#3e322e"/><g fill="#c4b3af"><path d="m316 301h-30v-30h30c8.402344 0 15 6.597656 15 15 0 8.398438-6.597656 15-15 15zm0 0"/><path d="m361 346c0 8.398438-6.597656 15-15 15h-60v-30h60c8.402344 0 15 6.597656 15 15zm0 0"/></g></svg>